PathFileType	4	(X/Y/Z)	C:/Users/beibeiliu/ov580/test_trc/capture2\sequence.29_training_dense_left.trc
DataRate	CameraRate	NumFrames	NumMarkers	Units	OrigDataRate	OrigDataStartFrame	OrigNumFrames
120	120	18	19	mm	120	86	340
Frame#	Time	ThumbCMC			ThumbMCP			ThumbIP			ThumbTip			IndexMCP			IndexPIP			IndexTip			MiddleMCP			MiddlePIP			MiddleTip			RingMCP			RingPIP			RingTip			PinkyMCP			PinkyPIP			PinkyTip			BackHand1			BackHand2			BackHand3	
		X0	Y0	Z0	X1	Y1	Z1	X2	Y2	Z2	X3	Y3	Z3	X4	Y4	Z4	X5	Y5	Z5	X6	Y6	Z6	X7	Y7	Z7	X8	Y8	Z8	X9	Y9	Z9	X10	Y10	Z10	X11	Y11	Z11	X12	Y12	Z12	X13	Y13	Z13	X14	Y14	Z14	X15	Y15	Z15	X16	Y16	Z16	X17	Y17	Z17	X18	Y18	Z18	
85	0.708333	-100.945	64.5234	25.8567	-85.5705	54.7796	-2.84328	-77.6495	54.179	-28.0963	-85.9316	54.3887	-54.0421	-96.5578	91.8814	-40.1031	-85.5484	67.4721	-48.319	-95.7252	56.0558	-17.5153	-110.541	80.8835	-47.6921	-97.5355	50.1396	-44.7417	-107.761	47.5966	-12.3986	-126.921	63.6621	-51.0331	-110.917	40.9087	-36.8515	-125.537	48.7364	-5.24426	-138.948	50.6042	-46.9577	-127.105	33.3972	-28.3561	-136.914	47.2706	3.37867	-160.015	80.7033	-5.99298	-162.963	72.1015	22.3104	-133.805	88.2525	23.5398	
86	0.716667	-103.867	63.9403	25.5128	-85.2812	53.4478	-3.25073	-75.1835	52.2731	-27.5035	-88.5251	53.8628	-57.4215	-98.7226	91.6223	-39.0353	-82.3713	65.3075	-46.5112	-95.8603	55.9504	-15.0259	-115.3	79.4036	-48.1558	-99.4362	52.0273	-48.1741	-111.624	48.5326	-9.5597	-125.731	64.5941	-49.0143	-114.008	38.7964	-34.8137	-124.178	46.319	-7.01809	-139.333	54.0979	-44.3393	-125.213	36.1744	-25.8686	-137.332	45.6023	1.20555	-160.13	79.1835	-4.82458	-163.432	73.5026	22.325	-133.997	90.2081	22.5622	
87	0.725	-103.003	63.8149	25.141	-84.5795	52.4148	-4.05161	-81.3563	52.6537	-30.2742	-86.5447	52.2344	-56.8469	-97.7629	91.5205	-41.3759	-85.1884	65.4713	-48.0682	-95.3435	54.7895	-16.0748	-111.075	80.1683	-49.3446	-97.033	52.0184	-47.1638	-108.098	47.9401	-13.508	-128.629	63.5863	-50.6995	-112.812	40.3257	-37.7776	-123.885	49.1217	-6.0669	-140.546	53.9762	-43.995	-127.76	33.1053	-25.3243	-137.996	46.0232	0.345664	-161.518	81.1851	-5.90546	-166.516	70.3305	25.2456	-135.898	89.9079	21.5703	
88	0.733333	-103.211	65.244	23.0172	-87.5437	52.6551	-3.52817	-77.8857	52.5776	-33.8858	-92.3805	51.6179	-57.8129	-100.617	91.7358	-39.4417	-83.7149	63.971	-46.0614	-95.9715	53.1053	-19.011	-113.728	77.2185	-52.016	-100.175	49.4264	-46.3976	-107.354	47.5758	-13.6282	-130.664	62.9731	-49.4111	-113.758	40.4697	-38.7052	-124.605	47.1819	-7.32065	-140.546	53.5313	-44.412	-127.246	34.2035	-28.0917	-138.83	43.7307	0.233533	-160.26	81.4332	-4.2333	-167.573	71.239	23.0274	-134.283	90.8196	17.5277	
89	0.741667	-104.507	64.8443	22.1547	-88.5973	52.8376	-4.18884	-82.3461	51.7356	-32.6747	-88.7315	50.2601	-54.8171	-100.076	90.8051	-40.585	-85.2411	64.1257	-46.925	-92.5023	54.0339	-15.7326	-113.4	77.3613	-51.9593	-97.9182	50.4465	-46.0343	-109.904	47.6606	-12.4723	-126.977	63.5091	-49.665	-114.48	37.9098	-37.4754	-122.941	48.8654	-7.02175	-144.433	51.8051	-45.1693	-127.869	33.6385	-26.4408	-136.56	49.5685	0.399163	-162.136	79.6582	-6.6192	-168.949	70.9605	22.8568	-135.061	91.7323	17.9539	
90	0.75	-102.419	64.5303	25.529	-89.7647	52.0647	-4.03225	-78.8749	50.2761	-34.0922	-92.3982	50.3852	-56.8505	-102.14	91.6274	-40.3918	-86.2142	66.2442	-50.6992	-95.2928	54.1926	-17.4743	-115.12	79.459	-47.8187	-99.9915	51.1637	-49.0397	-111.085	49.0393	-11.3649	-128.185	65.5207	-48.0993	-114.001	38.3578	-36.7898	-127.643	50.2401	-4.15396	-141.418	48.8785	-45.7522	-126.825	34.3404	-27.7068	-135.403	47.1831	-0.611384	-157.387	81.4081	-5.05133	-167.659	70.6492	20.3086	-134.319	92.5609	20.4298	
91	0.758333	-102.109	65.4306	24.8981	-85.6423	51.7043	-3.21806	-78.811	49.0942	-30.687	-90.4002	48.8215	-53.9559	-96.8934	90.1521	-42.8487	-87.1089	64.6099	-49.2451	-94.6647	53.6766	-18.4238	-113.583	80.4482	-47.2198	-98.8026	48.7834	-44.6668	-111.391	48.5435	-11.0222	-125.344	61.5072	-51.4346	-116.601	37.0427	-37.6286	-127.703	47.0949	-6.49212	-144.04	53.1215	-43.3869	-129.642	32.2747	-25.7372	-139.598	47.4404	2.66886	-158.25	82.7689	-6.30547	-166.247	73.8306	20.9298	-134.812	90.5583	17.143	
92	0.766667	-103.465	64.417	25.239	-90.1452	51.0101	-1.71241	-80.3877	50.5367	-32.2845	-93.7404	49.3566	-54.3204	-101.118	89.7481	-40.0164	-86.7134	62.5508	-48.0425	-96.4892	52.3672	-20.0981	-116.852	77.3764	-49.9104	-102.63	48.4564	-46.791	-110.62	49.6631	-9.65674	-129.063	60.7925	-50.8067	-116.675	36.7344	-35.1054	-124.495	46.9344	-6.14732	-143.501	50.4799	-45.2503	-128.807	32.4914	-26.3858	-137.91	49.6154	1.69796	-161.48	80.1894	-6.94601	-166.072	72.3441	25.4025	-138.79	87.6653	19.5296	
93	0.775	-105.429	64.2173	24.5643	-89.4238	52.2529	-5.27628	-82.5411	49.4068	-28.8757	-87.8615	48.6905	-55.3996	-99.0992	92.0482	-38.5746	-85.2776	64.4071	-48.4523	-95.1267	53.2258	-15.5704	-112.418	76.2448	-50.8083	-100.566	49.0764	-47.1213	-113.22	47.8469	-11.521	-127.912	58.5449	-51.3463	-116.54	37.6017	-36.8365	-124.486	50.4229	-4.76574	-141.086	52.4603	-44.1515	-127.196	33.4808	-25.6925	-138.52	49.8282	1.30995	-158.882	83.2236	-5.84791	-163.884	72.5273	23.3175	-137.62	90.2846	19.6507	
94	0.783333	-108.383	65.3264	24.7829	-86.1897	51.5445	-2.89266	-79.7847	50.3854	-32.6505	-90.3539	48.7468	-53.4781	-96.6529	90.1136	-40.7203	-87.6944	63.2917	-47.6647	-95.567	53.2583	-17.7192	-111.423	77.2615	-50.3365	-98.2902	49.007	-44.0633	-113.998	48.8261	-9.08766	-127.424	60.2074	-50.2866	-114.073	39.0864	-36.5772	-127.935	49.2441	-3.59686	-140.591	51.3422	-43.6024	-130.605	29.8833	-27.4567	-138.405	46.694	3.19849	-158.319	80.4598	-5.30405	-167.191	72.636	22.8696	-139.712	88.9632	17.9583	
95	0.791667	-107.695	66.6159	24.2422	-86.619	51.9151	-0.322665	-82.8841	51.6465	-30.9863	-89.4512	46.7112	-53.9265	-98.0817	90.1702	-43.3449	-87.4457	62.5618	-47.3549	-97.9122	53.9234	-15.6224	-114.991	75.4502	-51.8525	-99.0508	50.3402	-48.1856	-113.565	47.6863	-10.963	-128.421	58.5685	-50.9423	-115.774	37.4876	-38.1653	-126.065	45.7814	-6.741	-144.853	49.1116	-45.2597	-128.463	30.6813	-22.8633	-136.205	47.5519	1.69389	-161.669	81.1741	-9.51284	-165.774	70.7227	22.5673	-136.406	92.8461	18.4878	
96	0.8	-106.499	68.5892	23.899	-87.9919	56.9195	-1.97491	-80.2474	53.2093	-33.1402	-99.6585	48.4663	-51.3719	-100.129	91.4838	-41.7303	-82.1073	66.2792	-49.5263	-91.6843	50.0042	-18.9512	-116.463	76.303	-49.3371	-100.364	47.6594	-47.9201	-109.694	44.0059	-13.7665	-124.97	60.3819	-50.5254	-112.109	36.7634	-35.6118	-125.518	45.5359	-6.69785	-138.639	47.4738	-45.1189	-126.245	30.9304	-24.4115	-138.599	43.0316	1.3316	-161.865	78.5514	-9.93521	-169.758	71.7538	19.2633	-136.534	89.9736	19.7036	
97	0.808333	-109.535	71.2001	26.9963	-89.3186	69.5161	1.22016	-91.6916	68.5774	-26.7201	-115.629	58.5144	-44.6984	-100.467	91.496	-40.5036	-80.3293	63.7222	-51.4805	-82.2179	43.0097	-24.0348	-116.788	74.1274	-51.2236	-96.5694	46.9863	-49.1762	-103.186	41.0529	-14.5952	-124.898	58.2028	-50.7112	-113.073	33.2694	-36.9225	-124.877	43.4354	-6.37279	-138.701	45.769	-45.4253	-123.152	29.72	-24.5343	-136.232	43.0309	2.6713	-159.539	79.7036	-9.59352	-169.4	67.7555	22.025	-139.194	89.6621	14.4138	
98	0.816667	-108.337	76.8083	29.2572	-87.3109	76.3867	2.16856	-92.3141	75.8368	-30.4769	-115.032	61.0022	-39.1383	-103.503	90.2552	-42.4403	-81.1355	66.3579	-52.0606	-79.0697	44.8114	-28.6156	-115.667	74.452	-52.0462	-94.903	51.9521	-52.9021	-100.562	42.1903	-14.2086	-125.048	55.8396	-51.2579	-110.7	33.7828	-38.7085	-119.358	42.8008	-7.57317	-137.351	44.2718	-44.6893	-120.186	29.9863	-25.8758	-133.369	42.4645	2.92524	-160.708	75.4087	-11.5222	-170.043	65.6599	20.9638	-139.591	89.2121	18.2225	
99	0.825	-112.038	79.4784	24.0202	-90.0983	79.9293	0.707678	-85.0796	79.3606	-26.4304	-103.534	63.6135	-43.9758	-105.729	91.5417	-46.6716	-84.7639	73.7536	-57.3355	-78.8166	50.4486	-30.8722	-118.22	74.6562	-53.112	-93.1041	52.2054	-51.4717	-98.1822	46.0952	-14.494	-123.957	53.1617	-52.871	-104.872	37.3269	-38.4671	-114.699	45.7371	-7.6704	-137.436	44.5235	-44.592	-116.789	28.716	-29.4094	-126.578	39.9415	-1.49264	-164.606	71.0913	-11.3168	-168.971	65.0639	18.2447	-146.512	89.1761	15.8178	
100	0.833333	-113.043	80.0344	25.8105	-85.3458	78.5857	1.36245	-75.3056	76.9154	-22.3232	-81.8779	65.45	-48.4131	-114.003	96.5573	-47.6601	-92.3693	81.6285	-62.2555	-85.1906	61.7249	-31.9219	-118.031	73.0342	-58.438	-94.156	55.3643	-55.0662	-96.7709	52.6905	-16.5959	-126.144	55.2357	-53.2699	-102.087	40.4354	-42.3024	-112.498	46.0922	-8.034	-135.217	37.2901	-47.0803	-111.397	30.3573	-31.8136	-120.698	39.7438	-1.81611	-164.962	66.0066	-12.9809	-168.508	61.3931	21.471	-146.349	88.6737	12.4746	
101	0.841667	-114.232	87.0785	18.4701	-91.3443	80.9965	0.659481	-78.9525	81.4208	-23.9227	-75.9168	74.4044	-48.1701	-121.084	95.8099	-51.8655	-98.2738	84.8637	-66.6288	-86.6283	67.6791	-34.62	-123.159	73.4962	-57.2533	-94.2291	56.1355	-54.9456	-97.8262	53.1839	-20.8477	-124.823	53.6614	-55.6013	-98.8888	39.9012	-41.1659	-107.922	47.2259	-10.9069	-132.682	35.3586	-47.6634	-107.366	32.0982	-35.3778	-116.543	40.5987	-2.74694	-165.591	61.8992	-12.8974	-168.483	56.3914	15.6504	-151.419	89.7381	6.38067	
102	0.85	-119.809	93.3368	16.3181	-94.7803	92.866	-4.36281	-82.8974	91.8109	-25.9453	-76.9981	84.911	-50.0732	-126.271	94.4641	-58.04	-100.675	84.6915	-68.8757	-87.8353	73.0019	-40.5555	-125.011	68.8351	-61.7456	-93.6909	63.3231	-58.6906	-95.641	59.8466	-21.8696	-125.317	48.2085	-55.3557	-96.401	45.4701	-43.1998	-106.03	50.1995	-11.5176	-130.455	34.8433	-45.2402	-102.517	36.118	-34.2871	-112.741	43.0444	-3.69566	-164.908	54.3363	-14.1535	-167.057	55.8769	15.9172	-157.428	84.127	3.40359	
